<svg xmlns="http://www.w3.org/2000/svg" width="23" height="29" viewBox="0 0 23 29">
  <g id="그룹_8" data-name="그룹 8" transform="translate(-1141.786 -42)">
    <g id="사각형_2" data-name="사각형 2" transform="translate(1141.786 48)" fill="none" stroke="#000" stroke-width="2">
      <rect width="23" height="23" stroke="none"/>
      <rect x="1" y="1" width="21" height="21" fill="none"/>
    </g>
    <g id="빼기_1" data-name="빼기 1" transform="translate(1144.128 42)" fill="none">
      <path d="M18.529,8.285H0a9.322,9.322,0,0,1,18.529,0Z" stroke="none"/>
      <path d="M 15.92863750457764 6.284882545471191 C 15.51587200164795 5.380160808563232 14.91825294494629 4.560526371002197 14.16387462615967 3.880602598190308 C 12.81801414489746 2.667882680892944 11.0780143737793 2.00000262260437 9.264404296875 2.00000262260437 C 7.450764179229736 2.00000262260437 5.710884094238281 2.667842626571655 4.365234375 3.880542755126953 C 3.610665798187256 4.560517311096191 3.012999534606934 5.380088329315186 2.600194454193115 6.284882545471191 L 15.92863750457764 6.284882545471191 M 18.52880477905273 8.284882545471191 L 4.296874976716936e-06 8.284882545471191 C 0.2507342994213104 6.01865291595459 1.325804352760315 3.927252769470215 3.026364326477051 2.394802808761597 C 4.739994525909424 0.850482702255249 6.9554443359375 2.703246991586639e-06 9.264404296875 2.703246991586639e-06 C 11.57348442077637 2.703246991586639e-06 13.78881454467773 0.850482702255249 15.50268459320068 2.394802808761597 C 17.203125 3.927422761917114 18.27783393859863 6.01882266998291 18.52868461608887 8.283732414245605 L 18.52880477905273 8.284882545471191 Z" stroke="none" fill="#000"/>
    </g>
  </g>
</svg>
